Coordinates
version=1
nRows=17
nColumns=24
inDegrees=yes

Units are S.I. units (second, meters, Newtons, ...)
Angles are in degrees.

endheader
time	pelvis_tilt	pelvis_list	pelvis_rotation	pelvis_tx	pelvis_ty	pelvis_tz	hip_flexion_r	hip_adduction_r	hip_rotation_r	knee_angle_r	ankle_angle_r	subtalar_angle_r	mtp_angle_r	hip_flexion_l	hip_adduction_l	hip_rotation_l	knee_angle_l	ankle_angle_l	subtalar_angle_l	mtp_angle_l	lumbar_extension	lumbar_bending	lumbar_rotation
      2.17500000	     16.40779854	     -0.44701141	      4.25196252	      0.29437338	      0.96846056	      0.04594111	    -15.31583418	      3.38628271	     -0.96034829	     -2.83342312	     13.61668644	      1.66048318	     25.22330661	     -9.88176326	    -11.64085548	    -10.84278257	    -51.04804611	      3.68968232	      2.11448575	     43.87690270	    -25.62581991	      5.15701591	     -2.66694349
      2.18000000	     16.25493440	     -0.38616832	      4.26031920	      0.29844982	      0.96844479	      0.04620642	    -15.51345378	      3.34884612	     -1.00255071	     -2.66031607	     13.79502834	      1.77450519	     25.15803068	     -9.10634076	    -11.61989691	    -10.89242185	    -51.00093366	      4.35604914	      2.06871415	     43.76160690	    -25.52945885	      5.09950139	     -2.61462679
      2.18500000	     16.12153879	     -0.31303393	      4.25015342	      0.30254003	      0.96843911	      0.04646009	    -15.71476411	      3.29601290	     -1.08061218	     -2.52674633	     13.97088753	      1.86650219	     25.08218868	     -8.38873269	    -11.56725378	    -10.97810536	    -50.85191989	      5.02835736	      2.08596379	     43.62938203	    -25.45526956	      5.02364314	     -2.54747217
      2.19000000	     15.96494990	     -0.27426275	      4.23839594	      0.30657483	      0.96834026	      0.04671806	    -15.88717507	      3.27217744	     -1.11535482	     -2.38670558	     14.18826729	      2.04883959	     24.93565283	     -7.63498996	    -11.54095742	    -11.05869293	    -50.68052127	      5.66414570	      2.18557333	     43.35960781	    -25.36058508	      4.97793896	     -2.44871819
      2.19500000	     15.88741697	     -0.19383444	      4.19672919	      0.31065631	      0.96836793	      0.04695561	    -16.16955901	      3.20162405	     -1.12623295	     -2.20370947	     14.30832758	      2.11265038	     24.91247458	     -7.03081256	    -11.44189902	    -11.18789289	    -50.35505098	      6.23051027	      2.13330608	     43.32628781	    -25.35200161	      4.88606631	     -2.35115578
      2.20000000	     15.69626042	     -0.16080414	      4.16044619	      0.31469919	      0.96817262	      0.04715943	    -16.24116269	      3.16543381	     -1.28041209	     -2.20965529	     14.76530170	      2.61953718	     23.10746048	     -6.27818512	    -11.38752013	    -11.30779697	    -50.06887707	      6.99940742	      2.56134275	     40.35306197	    -25.21945331	      4.83971895	     -2.21572723
      2.20500000	     15.57860983	     -0.12748848	      4.11140546	      0.31873168	      0.96804680	      0.04740295	    -16.43657005	      3.13918591	     -1.28848772	     -2.10314825	     14.97236032	      2.68510769	     23.09113499	     -5.64174560	    -11.32596960	    -11.46538652	    -49.65176339	      7.56597312	      2.74843662	     40.36407447	    -25.17138648	      4.78774734	     -2.07814562
      2.21000000	     15.44138051	     -0.10101324	      4.04530662	      0.32276122	      0.96788311	      0.04762524	    -16.59542960	      3.10768840	     -1.30435897	     -2.02471482	     15.19569010	      2.84749421	     23.05988089	     -5.00375193	    -11.24981678	    -11.63826803	    -49.16372356	      8.08278223	      2.92480935	     40.33184472	    -25.10161565	      4.73793512	     -1.90871210
      2.21500000	     15.31403641	     -0.07787488	      3.97145861	      0.32676821	      0.96770940	      0.04784291	    -16.75336101	      3.07656945	     -1.32667536	     -1.96638959	     15.43557426	      3.04134881	     23.00565477	     -4.39464855	    -11.16277066	    -11.81837358	    -48.60341928	      8.56853289	      3.11110589	     40.26048770	    -25.04743927	      4.68755896	     -1.72619897
      2.22000000	     15.19446182	     -0.05134628	      3.95702720	      0.33078637	      0.96751129	      0.04788228	    -16.89897151	      3.04870945	     -1.53481850	     -1.96736445	     15.80850312	      3.50259279	     22.44079867	     -3.78821010	    -11.05012047	    -11.91923045	    -47.99601676	      9.08823352	      3.31938366	     39.55148634	    -24.99405889	      4.66734779	     -1.60320335
      2.22500000	     15.09608599	     -0.02650781	      3.81546410	      0.33478865	      0.96735722	      0.04814502	    -17.08524165	      2.99528556	     -1.43230547	     -1.90604235	     16.00800088	      3.58889951	     22.38123438	     -3.28089854	    -10.93343840	    -12.19536627	    -47.26098837	      9.47429276	      3.51896715	     39.49072704	    -24.97666953	      4.59349871	     -1.34105575
      2.23000000	     15.00630709	      0.00831775	      3.72534148	      0.33879471	      0.96719755	      0.04825171	    -17.24826078	      2.93458394	     -1.54891111	     -1.93511023	     16.43119597	      4.11333663	     20.99054658	     -2.78262931	    -10.78100264	    -12.38901764	    -46.47812501	      9.93621010	      3.78310341	     37.91545724	    -24.96471216	      4.53552142	     -1.12845855
      2.23500000	     14.91541221	      0.02076105	      3.62170126	      0.34275893	      0.96700350	      0.04843400	    -17.42535976	      2.90444970	     -1.50053251	     -1.90675510	     16.65867668	      4.17461060	     20.97732708	     -2.29928190	    -10.65600637	    -12.61163384	    -45.62502506	     10.31456102	      4.07343832	     37.91650244	    -24.95740542	      4.48654848	     -0.90307848
      2.24000000	     14.83263444	      0.03831463	      3.50432987	      0.34671317	      0.96681984	      0.04857369	    -17.59670908	      2.85832263	     -1.47179894	     -1.90704860	     16.90952748	      4.34019963	     20.95750106	     -1.85248735	    -10.50642566	    -12.84869608	    -44.69042330	     10.64217986	      4.34347103	     37.89004610	    -24.96182369	      4.43476203	     -0.66007998
      2.24500000	     14.80924512	      0.07112296	      3.40592976	      0.35072245	      0.96670713	      0.04863456	    -17.82789341	      2.79850660	     -1.58155022	     -1.93207262	     17.20575101	      4.74525110	     20.75021677	     -1.50439174	    -10.32709407	    -13.06848695	    -43.66260086	     10.98807413	      4.65407969	     37.66489295	    -25.02292689	      4.37950808	     -0.44075950
      2.25000000	     14.71480278	      0.09592725	      3.26829617	      0.35461609	      0.96649299	      0.04877449	    -17.96025044	      2.73572755	     -1.51269575	     -1.97705686	     17.48874039	      4.85519855	     20.69700667	     -1.08866803	    -10.14267085	    -13.31332151	    -42.58437292	     11.22269293	      4.96519504	     37.60770492	    -25.02254465	      4.30823174	     -0.16761122
      2.25500000	     14.72631301	      0.14545346	      3.15636120	      0.35860961	      0.96641715	      0.04881022	    -18.22249024	      2.65237237	     -1.60982359	     -2.01548418	     17.79644830	      5.26209282	     20.34654315	     -0.83884939	     -9.91993753	    -13.54301581	    -41.39041291	     11.53003192	      5.36154049	     37.28302938	    -25.12728748	      4.23193922	      0.05362983
